<mxfile host="app.diagrams.net" agent="Mozilla/5.0 (Windows NT 10.0; Win64; x64) AppleWebKit/537.36 (KHTML, like Gecko) Chrome/131.0.0.0 Safari/537.36" version="24.9.1">
  <diagram name="第 1 页" id="9gKRLKpU7UaqGYKgKach">
    <mxGraphModel dx="2074" dy="1132" grid="1" gridSize="10" guides="1" tooltips="1" connect="1" arrows="1" fold="1" page="1" pageScale="1" pageWidth="827" pageHeight="1169" math="0" shadow="0">
      <root>
        <mxCell id="0" />
        <mxCell id="1" parent="0" />
        <mxCell id="dfDXPhEQMeUIiF0N_-AT-1" value="viewsine-fep" style="rounded=0;whiteSpace=wrap;html=1;fillColor=#dae8fc;strokeColor=#6c8ebf;" vertex="1" parent="1">
          <mxGeometry x="10" y="545" width="260" height="80" as="geometry" />
        </mxCell>
        <mxCell id="dfDXPhEQMeUIiF0N_-AT-19" style="edgeStyle=orthogonalEdgeStyle;rounded=0;orthogonalLoop=1;jettySize=auto;html=1;exitX=0.5;exitY=0;exitDx=0;exitDy=0;entryX=0.892;entryY=0.975;entryDx=0;entryDy=0;entryPerimeter=0;" edge="1" parent="1" source="dfDXPhEQMeUIiF0N_-AT-2" target="dfDXPhEQMeUIiF0N_-AT-1">
          <mxGeometry relative="1" as="geometry" />
        </mxCell>
        <mxCell id="dfDXPhEQMeUIiF0N_-AT-2" value="电信CTWing平台" style="rounded=0;whiteSpace=wrap;html=1;fillColor=#f5f5f5;fontColor=#333333;strokeColor=#666666;" vertex="1" parent="1">
          <mxGeometry x="280" y="740" width="120" height="60" as="geometry" />
        </mxCell>
        <mxCell id="dfDXPhEQMeUIiF0N_-AT-3" value="移动OneNet平台" style="rounded=0;whiteSpace=wrap;html=1;fillColor=#f5f5f5;fontColor=#333333;strokeColor=#666666;" vertex="1" parent="1">
          <mxGeometry x="120" y="740" width="120" height="60" as="geometry" />
        </mxCell>
        <mxCell id="dfDXPhEQMeUIiF0N_-AT-8" style="edgeStyle=orthogonalEdgeStyle;rounded=0;orthogonalLoop=1;jettySize=auto;html=1;entryX=0.5;entryY=1;entryDx=0;entryDy=0;exitX=0.281;exitY=-0.011;exitDx=0;exitDy=0;exitPerimeter=0;" edge="1" parent="1" source="dfDXPhEQMeUIiF0N_-AT-7" target="dfDXPhEQMeUIiF0N_-AT-2">
          <mxGeometry relative="1" as="geometry" />
        </mxCell>
        <mxCell id="dfDXPhEQMeUIiF0N_-AT-10" value="NB-IoT" style="edgeLabel;html=1;align=center;verticalAlign=middle;resizable=0;points=[];" vertex="1" connectable="0" parent="dfDXPhEQMeUIiF0N_-AT-8">
          <mxGeometry x="0.175" y="-1" relative="1" as="geometry">
            <mxPoint x="-1" y="3" as="offset" />
          </mxGeometry>
        </mxCell>
        <mxCell id="dfDXPhEQMeUIiF0N_-AT-9" style="edgeStyle=orthogonalEdgeStyle;rounded=0;orthogonalLoop=1;jettySize=auto;html=1;entryX=0.5;entryY=1;entryDx=0;entryDy=0;" edge="1" parent="1" target="dfDXPhEQMeUIiF0N_-AT-3">
          <mxGeometry relative="1" as="geometry">
            <mxPoint x="180" y="900" as="sourcePoint" />
          </mxGeometry>
        </mxCell>
        <mxCell id="dfDXPhEQMeUIiF0N_-AT-11" value="NB-IoT" style="edgeLabel;html=1;align=center;verticalAlign=middle;resizable=0;points=[];" vertex="1" connectable="0" parent="dfDXPhEQMeUIiF0N_-AT-9">
          <mxGeometry x="0.2923" y="-2" relative="1" as="geometry">
            <mxPoint x="-2" y="15" as="offset" />
          </mxGeometry>
        </mxCell>
        <mxCell id="dfDXPhEQMeUIiF0N_-AT-12" style="edgeStyle=orthogonalEdgeStyle;rounded=0;orthogonalLoop=1;jettySize=auto;html=1;exitX=0.25;exitY=0;exitDx=0;exitDy=0;" edge="1" parent="1" source="dfDXPhEQMeUIiF0N_-AT-7" target="dfDXPhEQMeUIiF0N_-AT-1">
          <mxGeometry relative="1" as="geometry">
            <Array as="points">
              <mxPoint x="80" y="900" />
            </Array>
          </mxGeometry>
        </mxCell>
        <mxCell id="dfDXPhEQMeUIiF0N_-AT-13" value="TCP" style="edgeLabel;html=1;align=center;verticalAlign=middle;resizable=0;points=[];" vertex="1" connectable="0" parent="dfDXPhEQMeUIiF0N_-AT-12">
          <mxGeometry x="0.0889" y="1" relative="1" as="geometry">
            <mxPoint x="1" y="-91" as="offset" />
          </mxGeometry>
        </mxCell>
        <mxCell id="dfDXPhEQMeUIiF0N_-AT-7" value="&lt;div style=&quot;direction: rtl;&quot;&gt;&lt;span style=&quot;background-color: initial;&quot;&gt;设备层&lt;/span&gt;&lt;/div&gt;" style="rounded=0;whiteSpace=wrap;html=1;align=left;" vertex="1" parent="1">
          <mxGeometry x="20" y="900" width="1140" height="90" as="geometry" />
        </mxCell>
        <mxCell id="dfDXPhEQMeUIiF0N_-AT-14" style="edgeStyle=orthogonalEdgeStyle;rounded=0;orthogonalLoop=1;jettySize=auto;html=1;exitX=0.25;exitY=0;exitDx=0;exitDy=0;" edge="1" parent="1" source="dfDXPhEQMeUIiF0N_-AT-7" target="dfDXPhEQMeUIiF0N_-AT-1">
          <mxGeometry relative="1" as="geometry">
            <Array as="points">
              <mxPoint x="58" y="900" />
            </Array>
          </mxGeometry>
        </mxCell>
        <mxCell id="dfDXPhEQMeUIiF0N_-AT-15" value="UDP" style="edgeLabel;html=1;align=center;verticalAlign=middle;resizable=0;points=[];" vertex="1" connectable="0" parent="dfDXPhEQMeUIiF0N_-AT-14">
          <mxGeometry x="-0.2121" y="2" relative="1" as="geometry">
            <mxPoint x="-45" y="-102" as="offset" />
          </mxGeometry>
        </mxCell>
        <mxCell id="dfDXPhEQMeUIiF0N_-AT-16" style="edgeStyle=orthogonalEdgeStyle;rounded=0;orthogonalLoop=1;jettySize=auto;html=1;exitX=0.5;exitY=1;exitDx=0;exitDy=0;" edge="1" parent="1" source="dfDXPhEQMeUIiF0N_-AT-1" target="dfDXPhEQMeUIiF0N_-AT-1">
          <mxGeometry relative="1" as="geometry" />
        </mxCell>
        <mxCell id="dfDXPhEQMeUIiF0N_-AT-18" style="edgeStyle=orthogonalEdgeStyle;rounded=0;orthogonalLoop=1;jettySize=auto;html=1;" edge="1" parent="1" source="dfDXPhEQMeUIiF0N_-AT-3" target="dfDXPhEQMeUIiF0N_-AT-1">
          <mxGeometry relative="1" as="geometry">
            <Array as="points">
              <mxPoint x="180" y="710" />
              <mxPoint x="160" y="710" />
            </Array>
          </mxGeometry>
        </mxCell>
        <mxCell id="dfDXPhEQMeUIiF0N_-AT-21" value="物联网中台（基于JetLinks）" style="rounded=0;whiteSpace=wrap;html=1;fillColor=#ffe6cc;strokeColor=#d79b00;" vertex="1" parent="1">
          <mxGeometry x="200" y="400" width="760" height="80" as="geometry" />
        </mxCell>
      </root>
    </mxGraphModel>
  </diagram>
</mxfile>
